<svg width="16" height="16" viewBox="0 0 16 16" fill="none" xmlns="http://www.w3.org/2000/svg">
<g id="Frame">
<path id="Vector" d="M10 4.66666C10.3536 4.66666 10.6928 4.80713 10.9428 5.05718C11.1929 5.30723 11.3333 5.64637 11.3333 5.99999L10 4.66666ZM14 5.99999C14.0002 6.62477 13.854 7.24091 13.5732 7.79902C13.2924 8.35714 12.8847 8.84171 12.3829 9.21391C11.8811 9.5861 11.2991 9.83558 10.6835 9.94233C10.0679 10.0491 9.43584 10.0102 8.838 9.82866L7.33333 11.3333H6V12.6667H4.66667V14H2.66667C2.48986 14 2.32029 13.9298 2.19526 13.8047C2.07024 13.6797 2 13.5101 2 13.3333V11.6093C2.00004 11.4325 2.0703 11.263 2.19533 11.138L6.17133 7.16199C6.00497 6.612 5.95904 6.03262 6.0367 5.46329C6.11435 4.89395 6.31375 4.34804 6.62133 3.86269C6.92891 3.37734 7.33744 2.96395 7.81913 2.65067C8.30082 2.33738 8.84434 2.13156 9.41272 2.04719C9.9811 1.96283 10.561 2.00191 11.1129 2.16178C11.6648 2.32165 12.1758 2.59855 12.6111 2.97363C13.0464 3.34872 13.3958 3.81318 13.6354 4.33542C13.8751 4.85765 13.9994 5.42539 14 5.99999Z" fill="#C4C4C4"/>
</g>
</svg>
