<svg width="16" height="16" viewBox="0 0 16 16" fill="none" xmlns="http://www.w3.org/2000/svg">
<g id="Frame">
<path id="Vector" d="M2.66666 4.66667V11.3333C2.66666 12.8067 5.05466 14 7.99999 14C10.9453 14 13.3333 12.8067 13.3333 11.3333V4.66667H2.66666ZM2.66666 4.66667C2.66666 6.14 5.05466 7.33333 7.99999 7.33333C10.9453 7.33333 13.3333 6.14 13.3333 4.66667H2.66666ZM2.66666 4.66667C2.66666 3.19333 5.05466 2 7.99999 2C10.9453 2 13.3333 3.19333 13.3333 4.66667H2.66666ZM13.3333 8C13.3333 9.47333 10.9453 10.6667 7.99999 10.6667C5.05466 10.6667 2.66666 9.47333 2.66666 8" fill="#C4C4C4"/>
</g>
</svg>
